<?xml version="1.0" encoding="utf-8"?>
<!-- Generator: Adobe Illustrator 26.3.1, SVG Export Plug-In . SVG Version: 6.00 Build 0)  -->
<svg version="1.1" id="Capa_1" xmlns="http://www.w3.org/2000/svg" xmlns:xlink="http://www.w3.org/1999/xlink" x="0px" y="0px"
	 viewBox="0 0 28.6 28.6" style="enable-background:new 0 0 28.6 28.6;" xml:space="preserve">
<path d="M9.7,3.6c0,0-4.3-0.5-3.8,4.3c0,0-2.9,1.3-3,3.8c-0.2,2.6,1.9,5.4,4.4,5.3c0,0,3.1,4.7,6.3,0.2l2.5,0.9l2.1,1.4
	c0,0,3,1,4.4-2.6c0,0,4.9-2.2,2.4-6.9s-7.1-1.3-7.1-1.3S21.1,3.9,17,1C17,1,12.2-1.5,9.7,3.6z"/>
<g>
	<path d="M20.9,7.2c-0.7,0-1.4,0.1-2,0.4c0.4-0.7,0.6-1.6,0.6-2.4c0-2.9-2.3-5.2-5.2-5.2c-2.1,0-4,1.3-4.8,3.2c-0.1,0-0.3,0-0.4,0
		C7,3.2,5.3,4.9,5.3,7c0,0.2,0,0.5,0.1,0.8c-1.8,0.9-2.9,2.7-2.9,4.7c0,2.6,1.9,4.8,4.5,5.1c0.6,1.3,2,2.1,3.4,2.1
		c1.4,0,2.7-0.8,3.3-2c0.4,0.6,0.6,1.1,0.6,1.3c0.4,4-1.1,9.6-1.1,9.6h5.3c0,0-0.9-3-1.1-7.5c0-0.3,0.1-0.8,0.3-1.4
		c0.4,0.2,0.9,0.3,1.4,0.3c1.8,0,3.3-1.2,3.8-2.8c2-0.8,3.2-2.7,3.2-4.8C26.1,9.5,23.8,7.2,20.9,7.2z M22.4,16.5l-0.2,0.1l0,0.2
		c-0.3,1.4-1.6,2.4-3.1,2.4c-0.4,0-0.8-0.1-1.2-0.2c0.5-1.5,1.5-3.3,3-4.4c-1.5,0.5-3.7,2.6-3.7,2.6s-0.9-9.5-4.1-13.6
		c1.2,4.3,1.5,11.3,1.5,11.3s-2.2-2-6.9-3.7c2.5,2,4.4,4.1,5.5,5.7c-0.4,1.2-1.5,1.9-2.8,1.9c-1.2,0-2.3-0.7-2.8-1.8l-0.1-0.2
		l-0.2,0c-2.3-0.2-4-2.1-4-4.4C3.3,10.6,4.3,9,6,8.3l0.3-0.1L6.2,7.8C6.1,7.5,6.1,7.2,6.1,7c0-1.7,1.4-3,3-3C9.3,4,9.5,4,9.7,4
		L10,4.1l0.1-0.3c0.6-1.8,2.3-3,4.2-3c2.4,0,4.4,2,4.4,4.4c0,1.1-0.4,2.1-1.1,2.9l-0.2,0.3L18,9.1l0.3-0.2C19.1,8.3,20,8,20.9,8
		c2.4,0,4.4,2,4.4,4.4C25.4,14.2,24.2,15.9,22.4,16.5z"/>
</g>
</svg>
